<svg version="1.1" id="Layer_1" xmlns="http://www.w3.org/2000/svg" xmlns:xlink="http://www.w3.org/1999/xlink" x="0px" y="0px"
	 width="1em" height="1em" viewBox="0 0 460 460" enable-background="new 0 0 460 460" >
<path fill="transparent" opacity="1.000000" stroke="none" 
	d="
M302.000000,461.000000 
	C201.333328,461.000000 101.166664,461.000000 1.000000,461.000000 
	C1.000000,307.666656 1.000000,154.333328 1.000000,1.000000 
	C154.333328,1.000000 307.666656,1.000000 461.000000,1.000000 
	C461.000000,154.333328 461.000000,307.666656 461.000000,461.000000 
	C408.166656,461.000000 355.333344,461.000000 302.000000,461.000000 
M348.000000,250.443817 
	C348.999969,241.235123 350.079742,232.034180 350.976685,222.815460 
	C351.810364,214.247162 352.323425,205.647018 353.201752,197.083878 
	C354.703400,182.443710 356.377838,167.821228 357.985291,153.191925 
	C358.296021,150.363876 357.461670,148.722504 354.199921,148.963806 
	C351.632172,149.153778 349.039154,149.001953 346.152313,149.001953 
	C346.834930,143.228027 347.643524,138.337509 347.942810,133.416016 
	C348.434540,125.330315 348.294800,125.332878 340.415344,124.988281 
	C339.457153,124.946373 338.507507,124.708862 337.155701,124.500694 
	C337.452087,121.864738 337.712585,119.458107 337.995544,117.054123 
	C338.346680,114.071365 337.137726,112.976562 334.051880,112.939194 
	C327.154938,112.855652 326.985626,112.696602 327.075592,105.563347 
	C327.118927,102.127914 326.119324,100.752495 322.547577,100.947266 
	C317.896820,101.200890 313.210022,100.803940 308.560730,101.070656 
	C304.644043,101.295349 303.490723,99.750191 304.145203,96.079865 
	C305.223755,90.031067 305.157684,90.002960 299.211639,90.002174 
	C260.228790,89.997009 221.245956,89.999237 182.263107,89.999626 
	C174.653000,89.999702 174.493439,89.992004 174.076691,97.494781 
	C173.910156,100.493279 172.598068,101.103584 170.018600,101.038300 
	C165.523483,100.924515 161.011597,101.210800 156.528702,100.950768 
	C152.146469,100.696564 149.557922,101.552528 149.856339,106.831604 
	C150.107971,111.282738 147.980789,113.730446 142.842468,113.113464 
	C138.572647,112.600761 134.188446,113.120255 129.862045,112.973106 
	C126.588181,112.861755 125.191315,113.942802 124.879929,117.479446 
	C124.241043,124.735718 123.995575,124.812195 116.676376,124.962372 
	C113.687210,125.023697 112.186813,125.813026 111.915443,129.164688 
	C111.141449,138.724365 109.976097,148.251846 109.009033,157.796494 
	C107.924728,168.498230 107.076622,179.227951 105.764648,189.901108 
	C104.919380,196.777573 104.627823,196.908890 111.792000,196.918594 
	C115.092674,196.923050 116.323380,198.051804 116.025673,201.284882 
	C115.600616,205.900818 115.442650,210.541916 114.991837,215.154800 
	C113.431366,231.121765 111.833405,247.085358 110.147072,263.039398 
	C109.856056,265.792694 110.523941,267.170746 113.516891,267.022217 
	C116.122414,266.892883 118.739433,266.995270 121.603531,266.995270 
	C121.442352,268.321075 121.372009,268.956421 121.287056,269.589752 
	C120.120369,278.287903 120.175148,278.472382 128.557770,278.944672 
	C131.158096,279.091187 132.231445,280.027191 131.994522,282.546570 
	C131.514313,287.653351 131.464035,292.851410 130.412567,297.838135 
	C129.507385,302.131073 130.792664,303.337341 134.791809,303.022369 
	C136.996674,302.848694 139.226440,302.991272 141.531158,302.991272 
	C140.632736,312.968872 139.607071,322.013519 139.071106,331.087067 
	C138.673767,337.813782 138.962265,338.060608 145.574951,337.916443 
	C149.654907,337.827454 150.424805,339.537109 149.838120,343.053833 
	C149.104263,347.452728 148.633621,351.894897 148.002335,356.311676 
	C147.412735,360.436920 148.617371,362.842377 153.304398,361.996277 
	C158.602554,361.039856 160.007141,364.001526 158.895920,368.269623 
	C157.408493,373.982697 160.402802,374.072662 164.643478,374.050446 
	C188.132507,373.927307 211.625244,373.800201 235.110077,374.137177 
	C240.427582,374.213470 242.135254,371.772125 241.849960,367.559723 
	C241.514725,362.610352 243.644714,361.725281 247.944443,361.920013 
	C254.205536,362.203583 255.125412,361.455597 254.869690,355.311096 
	C254.673615,350.599518 256.558167,349.757477 260.692017,349.917206 
	C267.594360,350.183899 267.911499,349.831726 267.921448,342.559143 
	C267.926117,339.149872 268.865753,337.543976 272.447906,337.971771 
	C273.926025,338.148346 275.453400,337.886230 276.940247,338.022125 
	C279.926605,338.294983 281.020233,337.126953 281.066681,334.048096 
	C281.170929,327.137695 281.326538,327.018585 288.449646,327.049255 
	C291.407013,327.061951 293.049835,326.519928 293.251770,323.082977 
	C293.502899,318.808746 294.534790,314.586304 294.945618,310.314209 
	C295.628143,303.217377 295.532867,303.054840 303.020996,303.056702 
	C306.646606,303.057587 308.054169,301.826111 308.081146,298.117828 
	C308.114777,293.493256 308.657593,288.861938 309.171173,284.254822 
	C309.549225,280.863342 310.689117,278.486786 315.091003,278.890289 
	C320.212097,279.359772 325.421783,279.183472 330.565002,278.852356 
	C331.763275,278.775208 333.609894,277.089478 333.843994,275.887817 
	C334.567902,272.171936 334.943542,268.331818 334.934479,264.541168 
	C334.915161,256.458130 334.141693,255.588791 343.297546,256.016174 
	C346.722656,256.176056 348.309387,254.787506 348.000000,250.443817 
z"/>
<path fill="#FFFFFE" opacity="1.000000" stroke="none" 
	d="
M347.998627,250.891724 
	C348.309387,254.787506 346.722656,256.176056 343.297546,256.016174 
	C334.141693,255.588791 334.915161,256.458130 334.934479,264.541168 
	C334.943542,268.331818 334.567902,272.171936 333.843994,275.887817 
	C333.609894,277.089478 331.763275,278.775208 330.565002,278.852356 
	C325.421783,279.183472 320.212097,279.359772 315.091003,278.890289 
	C310.689117,278.486786 309.549225,280.863342 309.171173,284.254822 
	C308.657593,288.861938 308.114777,293.493256 308.081146,298.117828 
	C308.054169,301.826111 306.646606,303.057587 303.020996,303.056702 
	C295.532867,303.054840 295.628143,303.217377 294.945618,310.314209 
	C294.534790,314.586304 293.502899,318.808746 293.251770,323.082977 
	C293.049835,326.519928 291.407013,327.061951 288.449646,327.049255 
	C281.326538,327.018585 281.170929,327.137695 281.066681,334.048096 
	C281.020233,337.126953 279.926605,338.294983 276.940247,338.022125 
	C275.453400,337.886230 273.926025,338.148346 272.447906,337.971771 
	C268.865753,337.543976 267.926117,339.149872 267.921448,342.559143 
	C267.911499,349.831726 267.594360,350.183899 260.692017,349.917206 
	C256.558167,349.757477 254.673615,350.599518 254.869690,355.311096 
	C255.125412,361.455597 254.205536,362.203583 247.944443,361.920013 
	C243.644714,361.725281 241.514725,362.610352 241.849960,367.559723 
	C242.135254,371.772125 240.427582,374.213470 235.110077,374.137177 
	C211.625244,373.800201 188.132507,373.927307 164.643478,374.050446 
	C160.402802,374.072662 157.408493,373.982697 158.895920,368.269623 
	C160.007141,364.001526 158.602554,361.039856 153.304398,361.996277 
	C148.617371,362.842377 147.412735,360.436920 148.002335,356.311676 
	C148.633621,351.894897 149.104263,347.452728 149.838120,343.053833 
	C150.424805,339.537109 149.654907,337.827454 145.574951,337.916443 
	C138.962265,338.060608 138.673767,337.813782 139.071106,331.087067 
	C139.607071,322.013519 140.632736,312.968872 141.531158,302.991272 
	C139.226440,302.991272 136.996674,302.848694 134.791809,303.022369 
	C130.792664,303.337341 129.507385,302.131073 130.412567,297.838135 
	C131.464035,292.851410 131.514313,287.653351 131.994522,282.546570 
	C132.231445,280.027191 131.158096,279.091187 128.557770,278.944672 
	C120.175148,278.472382 120.120369,278.287903 121.287056,269.589752 
	C121.372009,268.956421 121.442352,268.321075 121.603531,266.995270 
	C118.739433,266.995270 116.122414,266.892883 113.516891,267.022217 
	C110.523941,267.170746 109.856056,265.792694 110.147072,263.039398 
	C111.833405,247.085358 113.431366,231.121765 114.991837,215.154800 
	C115.442650,210.541916 115.600616,205.900818 116.025673,201.284882 
	C116.323380,198.051804 115.092674,196.923050 111.792000,196.918594 
	C104.627823,196.908890 104.919380,196.777573 105.764648,189.901108 
	C107.076622,179.227951 107.924728,168.498230 109.009033,157.796494 
	C109.976097,148.251846 111.141449,138.724365 111.915443,129.164688 
	C112.186813,125.813026 113.687210,125.023697 116.676376,124.962372 
	C123.995575,124.812195 124.241043,124.735718 124.879929,117.479446 
	C125.191315,113.942802 126.588181,112.861755 129.862045,112.973106 
	C134.188446,113.120255 138.572647,112.600761 142.842468,113.113464 
	C147.980789,113.730446 150.107971,111.282738 149.856339,106.831604 
	C149.557922,101.552528 152.146469,100.696564 156.528702,100.950768 
	C161.011597,101.210800 165.523483,100.924515 170.018600,101.038300 
	C172.598068,101.103584 173.910156,100.493279 174.076691,97.494781 
	C174.493439,89.992004 174.653000,89.999702 182.263107,89.999626 
	C221.245956,89.999237 260.228790,89.997009 299.211639,90.002174 
	C305.157684,90.002960 305.223755,90.031067 304.145203,96.079865 
	C303.490723,99.750191 304.644043,101.295349 308.560730,101.070656 
	C313.210022,100.803940 317.896820,101.200890 322.547577,100.947266 
	C326.119324,100.752495 327.118927,102.127914 327.075592,105.563347 
	C326.985626,112.696602 327.154938,112.855652 334.051880,112.939194 
	C337.137726,112.976562 338.346680,114.071365 337.995544,117.054123 
	C337.712585,119.458107 337.452087,121.864738 337.155701,124.500694 
	C338.507507,124.708862 339.457153,124.946373 340.415344,124.988281 
	C348.294800,125.332878 348.434540,125.330315 347.942810,133.416016 
	C347.643524,138.337509 346.834930,143.228027 346.152313,149.001953 
	C349.039154,149.001953 351.632172,149.153778 354.199921,148.963806 
	C357.461670,148.722504 358.296021,150.363876 357.985291,153.191925 
	C356.377838,167.821228 354.703400,182.443710 353.201752,197.083878 
	C352.323425,205.647018 351.810364,214.247162 350.976685,222.815460 
	C350.079742,232.034180 348.999969,241.235123 347.998627,250.891724 
M245.941986,338.011383 
	C256.650116,337.969482 256.649658,337.969452 257.192352,327.058441 
	C257.208557,326.733368 257.257782,326.409943 257.644653,326.128998 
	C257.644653,326.128998 258.000336,326.132385 258.642792,326.611298 
	C269.879333,327.815552 269.878967,327.815552 270.018677,317.034424 
	C270.027283,316.368622 270.048279,315.702942 270.512268,314.960266 
	C270.512268,314.960266 270.952087,314.842590 271.876556,314.914978 
	C274.371307,314.920532 276.941498,315.288361 279.331421,314.790649 
	C280.682373,314.509277 282.606049,312.931091 282.781372,311.721069 
	C283.776215,304.854919 284.321045,297.923553 285.000000,291.000000 
	C285.000000,291.000000 285.014404,291.019073 285.936951,291.004303 
	C287.761444,291.002289 289.611938,290.802399 291.405212,291.037964 
	C295.624115,291.592163 297.122375,290.206238 297.189209,285.669312 
	C297.279846,279.514496 298.511047,273.376465 299.281158,266.998322 
	C305.786530,266.998322 311.589874,266.757111 317.361816,267.078949 
	C321.552795,267.312622 323.129272,266.264526 323.168243,261.672546 
	C323.219666,255.612198 324.440369,249.561798 326.054840,243.532196 
	C329.532776,243.532196 333.010712,243.532196 336.969452,243.532196 
	C339.698853,215.951797 342.399811,188.658875 345.154663,160.821198 
	C340.929108,160.821198 337.359772,160.821198 333.704559,160.821198 
	C334.281677,152.646210 334.824280,144.960342 335.397034,136.847504 
	C331.233246,136.847504 327.632690,136.847504 323.868561,136.847504 
	C324.215454,132.890762 324.525970,129.348770 324.884125,125.263390 
	C320.747467,125.263390 317.153290,125.263390 313.428497,125.263390 
	C313.729492,121.151413 313.992218,117.562073 314.298981,113.371323 
	C306.394714,113.371323 298.838013,113.371323 290.977631,113.371323 
	C291.365417,109.184624 291.697266,105.601692 292.053650,101.754089 
	C283.757538,101.754089 275.818542,101.754089 266.986603,101.529556 
	C255.560394,101.514122 244.133926,101.445862 232.708023,101.498024 
	C221.132446,101.550858 209.557434,101.722748 197.130890,101.557816 
	C193.362915,101.557816 189.594955,101.557816 185.844360,101.557816 
	C185.524994,103.951881 184.925354,105.792686 185.110748,107.550705 
	C185.685364,112.999725 182.906464,113.872154 178.254410,113.576004 
	C172.516800,113.210747 166.738235,113.488708 160.959000,113.488708 
	C160.574783,116.175377 159.972397,118.160072 160.077225,120.106674 
	C160.313522,124.494980 158.512177,125.855125 154.180191,125.584244 
	C148.121399,125.205383 142.021210,125.488686 135.870850,125.488686 
	C135.440079,129.652374 135.085342,133.081131 134.689926,136.903152 
	C130.715485,136.903152 126.942711,136.903152 122.662369,136.903152 
	C121.697281,149.166382 120.762115,161.049438 119.433037,173.732529 
	C119.036766,177.161804 118.640495,180.591064 118.176369,184.607544 
	C122.265572,184.607544 126.000275,184.607544 129.790863,184.607544 
	C129.474838,188.843323 129.200333,192.522797 128.918854,196.295532 
	C133.188416,196.507599 136.813507,196.687653 140.286469,197.794861 
	C140.068909,201.189484 139.851349,204.584106 139.293884,208.693497 
	C138.885605,212.419342 138.477341,216.145203 137.146103,219.987152 
	C133.716110,219.987152 130.286118,219.987152 126.693253,219.987152 
	C125.758141,227.965408 124.876434,235.487946 123.901062,243.866989 
	C123.600487,247.692139 123.299911,251.517288 122.953613,255.924362 
	C126.057198,255.924362 128.336914,256.007751 130.607849,255.902161 
	C133.148041,255.784042 133.991455,256.832153 134.076691,259.396240 
	C134.329102,266.989532 134.442383,266.984985 142.156067,267.001221 
	C143.145538,267.003296 144.134964,267.018646 145.122299,267.931274 
	C144.481812,275.456421 143.841324,282.981598 143.151291,291.088867 
	C147.383728,291.088867 150.966766,291.088867 154.659027,291.088867 
	C153.497162,302.995514 152.388931,314.352386 151.219849,326.332886 
	C155.269608,326.642242 158.945908,326.923096 162.970718,327.230560 
	C162.278793,334.944031 161.623581,342.248077 160.950317,349.753387 
	C165.052124,349.946320 168.320572,350.100037 172.170761,350.281128 
	C171.903717,354.202545 171.662460,357.745148 171.381317,361.873779 
	C183.430237,361.873779 195.194046,361.873779 207.899094,361.962219 
	C212.523071,361.974609 217.147034,361.994659 221.771011,361.997711 
	C230.123093,362.003204 230.106857,361.996918 231.148224,353.858826 
	C231.314896,352.556305 231.700470,351.281769 231.999908,350.000793 
	C231.999908,350.000793 231.994919,349.986420 232.920944,349.995422 
	C233.741898,349.996613 234.562866,349.998596 235.383820,349.998901 
	C243.456635,350.001801 243.429779,349.999420 244.136505,341.804901 
	C244.246704,340.526947 244.729095,339.281036 244.995377,338.004852 
	C244.995377,338.004852 245.020828,338.044373 245.941986,338.011383 
z"/>
<path fill="#312D2D" opacity="1.000000" stroke="none" 
	d="
M197.982162,101.842499 
	C209.557434,101.722748 221.132446,101.550858 232.708023,101.498024 
	C244.133926,101.445862 255.560394,101.514122 267.486328,102.035706 
	C268.042694,112.128792 268.032471,112.044167 258.753815,113.165253 
	C257.454987,113.322166 255.491043,114.604424 255.255295,115.677734 
	C254.566498,118.813492 254.596451,122.107117 254.281647,126.148315 
	C258.325989,126.148315 262.800812,124.880905 265.274597,126.560562 
	C267.158600,127.839783 266.502838,132.859604 267.046906,136.709900 
	C267.953461,136.776367 269.434113,137.127502 270.844666,136.942932 
	C275.091553,136.387222 276.287140,138.189026 276.092804,142.285431 
	C275.755920,149.387360 275.428101,149.276642 282.742798,148.923767 
	C286.516693,148.741730 287.442383,150.447449 287.001556,153.678436 
	C286.375488,158.267609 285.736359,162.855148 285.073853,167.439194 
	C284.523926,171.244125 285.440948,173.756302 289.979797,172.930008 
	C295.389435,171.945175 296.769012,174.589859 296.024475,179.370300 
	C295.367493,183.588593 297.536316,184.944672 301.465088,184.989471 
	C307.270538,185.055679 307.718231,186.042496 306.645691,191.832855 
	C305.987122,195.388321 304.265564,196.299820 300.873383,196.174057 
	C298.654572,196.091797 294.981720,196.530487 294.439606,197.797073 
	C293.226349,200.631683 293.562561,204.129501 293.243011,207.627609 
	C294.933563,207.770248 296.224365,207.951065 297.518250,207.976425 
	C304.719299,208.117447 304.696167,208.102585 304.082794,215.368179 
	C303.957275,216.854797 304.079346,218.362289 303.612915,219.903656 
	C295.640076,219.882736 288.141602,219.818359 280.593384,219.304321 
	C280.795471,215.415634 281.047211,211.976624 281.325348,208.177567 
	C276.916534,208.177567 272.965851,208.177567 268.560791,208.102112 
	C264.729797,208.034866 261.353149,208.043060 257.892517,207.594284 
	C257.933105,203.751251 258.057678,200.365204 258.374268,196.622986 
	C259.003479,192.560165 259.440643,188.853500 259.923615,184.758362 
	C256.186890,184.758362 252.783127,184.758362 249.094727,184.384766 
	C248.810074,180.304260 248.810074,176.597351 248.810074,172.150253 
	C241.072495,172.150253 233.504913,172.150253 225.954926,171.694794 
	C226.581955,165.855484 227.061417,160.452789 227.837845,155.093109 
	C228.597122,149.851730 228.033676,149.039062 222.704330,149.007843 
	C221.712250,149.002045 220.712418,149.088791 219.729477,148.994354 
	C216.915741,148.723923 216.105881,150.033646 215.948349,152.745453 
	C215.567520,159.300171 214.824585,165.833847 214.155334,172.765808 
	C213.720367,175.948914 213.554337,178.789566 212.898666,181.512329 
	C212.634735,182.608337 211.380463,184.159073 210.433182,184.269455 
	C207.395447,184.623428 204.290527,184.401016 200.981934,184.401016 
	C201.370071,180.054977 201.687622,176.499283 201.990997,173.102234 
	C201.192673,172.775345 200.897568,172.565933 200.587280,172.540314 
	C190.770950,171.729492 190.868469,171.748367 189.297012,181.234268 
	C189.097702,182.437347 187.323288,184.159714 186.128525,184.292648 
	C177.579483,185.243912 177.570145,185.133316 176.196777,193.635101 
	C176.068771,194.427597 175.870926,195.208832 175.692108,196.058975 
	C171.891144,196.058975 168.337570,196.058975 164.494400,196.058975 
	C164.646133,194.049759 164.806747,192.424805 164.885132,190.795883 
	C165.185486,184.553970 165.459473,178.310791 166.225281,172.078766 
	C169.525604,172.067856 172.344513,172.074982 175.162155,172.018417 
	C180.410751,171.913101 178.633194,167.861816 179.015167,165.055756 
	C179.414307,162.123749 178.249741,160.722931 175.132202,160.974075 
	C172.901489,161.153793 170.644638,161.009018 168.547104,161.009018 
	C168.264526,159.684341 168.084167,159.204651 168.071609,158.720627 
	C167.990128,155.576172 169.150314,150.860962 167.595352,149.667191 
	C165.459641,148.027588 161.276123,149.055389 157.976105,148.483490 
	C158.326538,141.765839 158.783218,135.508118 158.963608,129.242447 
	C159.042755,126.493301 160.382858,125.933067 162.727692,125.972435 
	C167.534927,126.053177 172.344528,126.000710 177.153122,125.992798 
	C183.599533,125.982193 183.440567,125.947838 184.120239,119.297081 
	C184.304794,117.491135 186.155853,114.227219 186.755707,114.335152 
	C196.443756,116.078476 197.454086,109.801582 197.880432,102.831039 
	C197.900650,102.500687 197.947647,102.171974 197.982162,101.842499 
M184.567810,160.992905 
	C192.533096,160.972183 192.533096,160.972183 191.978394,149.015915 
	C189.370026,149.015915 186.730179,148.937225 184.096695,149.033249 
	C179.453201,149.202576 180.651932,153.179016 180.153595,155.719009 
	C179.668365,158.192352 179.229858,161.431030 184.567810,160.992905 
z"/>
<path fill="#FFD4BA" opacity="1.000000" stroke="none" 
	d="
M258.000336,326.132385 
	C258.000336,326.132385 257.644653,326.128998 256.985046,326.080261 
	C244.951508,325.925354 244.951508,325.925354 245.013306,337.548859 
	C245.014191,337.714020 245.018250,337.879211 245.020828,338.044373 
	C245.020828,338.044373 244.995377,338.004852 244.552124,338.006012 
	C232.014023,337.979431 232.014023,337.979431 231.994919,349.986420 
	C231.994919,349.986420 231.999908,350.000793 231.525360,350.001892 
	C223.359802,350.007141 215.668793,350.011322 207.510559,350.010132 
	C201.223343,350.002502 195.386017,349.723633 189.588928,350.086823 
	C185.071152,350.369904 184.612625,348.086517 185.070526,344.638123 
	C185.944824,338.054047 185.935898,338.164856 179.283005,337.922821 
	C177.546310,337.859650 174.843536,337.347778 174.299789,336.217072 
	C172.061356,331.562317 175.289444,326.996887 180.391022,326.975433 
	C183.051529,326.964264 185.712158,326.973358 188.372726,326.973358 
	C197.552429,326.973328 197.558258,326.974579 199.357224,318.337585 
	C199.591843,317.211182 199.729507,316.064606 200.355682,314.916168 
	C212.156097,314.712341 212.156387,314.712341 212.107910,303.479095 
	C212.105759,302.982727 212.089127,302.486450 212.343765,301.715271 
	C213.094574,298.150970 213.580887,294.861481 214.064377,291.591034 
	C202.084427,289.863647 201.186066,290.603607 200.975037,301.463348 
	C200.971817,301.628845 200.963104,301.794250 200.590393,302.134094 
	C196.512375,302.194794 192.800903,302.081024 189.057983,301.539948 
	C189.369354,297.754059 189.712173,294.395477 190.281067,290.711914 
	C190.889481,286.656982 191.271851,282.927002 192.135956,279.142578 
	C194.087906,279.058777 195.558060,279.010010 197.028397,279.003387 
	C204.574768,278.969391 203.950195,279.574219 204.046631,272.214813 
	C204.069443,270.473083 204.665878,268.738892 205.467255,267.001526 
	C217.146408,267.001862 228.356735,267.001862 239.390060,267.001862 
	C241.602417,256.005402 241.602417,256.005432 252.432831,255.954926 
	C252.598633,255.954147 252.764420,255.950378 253.403046,255.961761 
	C259.698486,255.982315 265.531586,256.203796 271.340057,255.920227 
	C275.196686,255.731949 276.545288,257.227844 275.993500,260.831909 
	C275.293671,265.403259 276.746735,267.898193 281.815857,266.999817 
	C286.671692,266.139252 287.458466,268.861481 287.003876,272.799011 
	C286.303192,278.868011 285.673950,284.945312 285.014404,291.019073 
	C285.014404,291.019073 285.000000,291.000000 284.545349,291.002014 
	C282.107880,291.002747 280.110779,291.152283 278.145477,290.966125 
	C274.882507,290.657013 272.895081,291.327271 272.693359,295.239990 
	C272.355835,301.786713 271.556854,308.309631 270.952087,314.842590 
	C270.952087,314.842590 270.512268,314.960266 269.822876,314.984009 
	C258.261292,315.142029 257.838074,312.826813 258.000336,326.132385 
z"/>
<path fill="#574C4C" opacity="1.000000" stroke="none" 
	d="
M304.087280,219.860168 
	C304.079346,218.362289 303.957275,216.854797 304.082794,215.368179 
	C304.696167,208.102585 304.719299,208.117447 297.518250,207.976425 
	C296.224365,207.951065 294.933563,207.770248 293.243011,207.627609 
	C293.562561,204.129501 293.226349,200.631683 294.439606,197.797073 
	C294.981720,196.530487 298.654572,196.091797 300.873383,196.174057 
	C304.265564,196.299820 305.987122,195.388321 306.645691,191.832855 
	C307.718231,186.042496 307.270538,185.055679 301.465088,184.989471 
	C297.536316,184.944672 295.367493,183.588593 296.024475,179.370300 
	C296.769012,174.589859 295.389435,171.945175 289.979797,172.930008 
	C285.440948,173.756302 284.523926,171.244125 285.073853,167.439194 
	C285.736359,162.855148 286.375488,158.267609 287.001556,153.678436 
	C287.442383,150.447449 286.516693,148.741730 282.742798,148.923767 
	C275.428101,149.276642 275.755920,149.387360 276.092804,142.285431 
	C276.287140,138.189026 275.091553,136.387222 270.844666,136.942932 
	C269.434113,137.127502 267.953461,136.776367 267.046906,136.709900 
	C266.502838,132.859604 267.158600,127.839783 265.274597,126.560562 
	C262.800812,124.880905 258.325989,126.148315 254.281647,126.148315 
	C254.596451,122.107117 254.566498,118.813492 255.255295,115.677734 
	C255.491043,114.604424 257.454987,113.322166 258.753815,113.165253 
	C268.032471,112.044167 268.042694,112.128792 267.932800,102.147964 
	C275.818542,101.754089 283.757538,101.754089 292.053650,101.754089 
	C291.697266,105.601692 291.365417,109.184624 290.977631,113.371323 
	C298.838013,113.371323 306.394714,113.371323 314.298981,113.371323 
	C313.992218,117.562073 313.729492,121.151413 313.428497,125.263390 
	C317.153290,125.263390 320.747467,125.263390 324.884125,125.263390 
	C324.525970,129.348770 324.215454,132.890762 323.868561,136.847504 
	C327.632690,136.847504 331.233246,136.847504 335.397034,136.847504 
	C334.824280,144.960342 334.281677,152.646210 333.704559,160.821198 
	C337.359772,160.821198 340.929108,160.821198 345.154663,160.821198 
	C342.399811,188.658875 339.698853,215.951797 336.969452,243.532196 
	C333.010712,243.532196 329.532776,243.532196 325.566895,243.116013 
	C325.414795,239.187363 325.750671,235.674896 326.150482,231.494064 
	C322.031219,231.494064 318.473602,231.494064 314.843323,231.084183 
	C315.093506,227.302826 315.416382,223.931351 315.806274,219.860168 
	C311.581726,219.860168 307.834534,219.860168 304.087280,219.860168 
z"/>
<path fill="#030202" opacity="1.000000" stroke="none" 
	d="
M303.612946,219.903656 
	C307.834534,219.860168 311.581726,219.860168 315.806274,219.860168 
	C315.416382,223.931351 315.093506,227.302826 314.581787,231.066696 
	C314.257904,231.569946 314.122833,231.680786 313.541382,231.676117 
	C309.710938,231.640884 306.326874,231.721176 302.500427,231.675461 
	C298.383057,231.653458 294.708069,231.757462 290.581604,231.715668 
	C279.818909,231.551651 269.506927,231.593857 259.196838,231.474945 
	C256.435608,231.443100 254.839035,231.889191 254.907745,235.231277 
	C254.964737,238.003113 254.217270,240.791473 253.439514,243.551071 
	C249.764206,243.490036 246.475555,243.450455 243.072449,242.997314 
	C242.958008,238.987152 242.958008,235.390518 242.958008,231.600449 
	C238.574921,231.600449 234.820465,231.600449 230.604065,231.561890 
	C226.751144,231.631012 223.360153,231.738693 219.522308,231.707718 
	C215.486786,231.569061 211.898148,231.569061 208.279144,231.569061 
	C207.708649,236.001709 207.203491,239.926620 206.260986,243.815216 
	C202.285339,243.813766 198.747086,243.848602 195.137909,243.860367 
	C195.067017,243.837280 194.991898,243.966110 195.043671,243.554749 
	C195.463837,239.396622 195.832214,235.649857 196.198181,231.927734 
	C184.755737,230.368378 184.757843,230.368652 183.426987,240.713837 
	C183.321213,241.536041 183.158615,242.350906 182.572128,243.278519 
	C178.442825,243.379150 174.763824,243.370453 171.102539,242.921143 
	C173.103012,231.708038 173.102997,231.707565 161.994339,231.923950 
	C161.665070,231.930359 161.336472,231.971863 160.687759,231.782684 
	C156.583725,231.648651 152.799500,231.728928 148.637634,231.677475 
	C144.623993,231.545731 140.987991,231.545731 137.170166,231.545731 
	C136.753235,235.666534 136.370071,239.453735 135.537292,243.351593 
	C131.390030,243.311676 127.692383,243.161072 123.994736,243.010468 
	C124.876434,235.487946 125.758141,227.965408 126.693253,219.987152 
	C130.286118,219.987152 133.716110,219.987152 138.053192,220.001160 
	C142.636444,220.006119 146.312607,219.997070 150.457001,220.020126 
	C158.660522,220.009506 166.395813,219.966766 174.590515,219.956161 
	C190.333572,219.973145 205.617203,219.957993 221.375000,219.971191 
	C233.583954,219.989182 245.318741,219.978806 257.510986,219.980377 
	C261.647095,219.939743 265.325775,219.887177 269.454712,219.907959 
	C273.484375,219.905518 277.063721,219.829742 280.643097,219.753967 
	C288.141602,219.818359 295.640076,219.882736 303.612946,219.903656 
z"/>
<path fill="#ECBA9A" opacity="1.000000" stroke="none" 
	d="
M199.912064,314.927368 
	C199.729507,316.064606 199.591843,317.211182 199.357224,318.337585 
	C197.558258,326.974579 197.552429,326.973328 188.372726,326.973358 
	C185.712158,326.973358 183.051529,326.964264 180.391022,326.975433 
	C175.289444,326.996887 172.061356,331.562317 174.299789,336.217072 
	C174.843536,337.347778 177.546310,337.859650 179.283005,337.922821 
	C185.935898,338.164856 185.944824,338.054047 185.070526,344.638123 
	C184.612625,348.086517 185.071152,350.369904 189.588928,350.086823 
	C195.386017,349.723633 201.223343,350.002502 207.518921,350.451569 
	C207.648956,354.556854 207.303421,358.215302 206.957870,361.873779 
	C195.194046,361.873779 183.430237,361.873779 171.381317,361.873779 
	C171.662460,357.745148 171.903717,354.202545 172.170761,350.281128 
	C168.320572,350.100037 165.052124,349.946320 160.950317,349.753387 
	C161.623581,342.248077 162.278793,334.944031 162.970718,327.230560 
	C158.945908,326.923096 155.269608,326.642242 151.219849,326.332886 
	C152.388931,314.352386 153.497162,302.995514 154.659027,291.088867 
	C150.966766,291.088867 147.383728,291.088867 143.151291,291.088867 
	C143.841324,282.981598 144.481812,275.456421 145.579315,267.476685 
	C153.684647,267.012360 161.332947,267.002625 168.992065,267.431549 
	C168.326584,275.585968 167.650299,283.301727 166.966553,291.436096 
	C166.624329,295.232117 166.289551,298.609528 165.689316,302.286743 
	C165.121658,305.045715 165.105911,307.584229 164.451584,309.945831 
	C163.412003,313.697998 164.412338,315.103699 168.419861,315.031311 
	C178.914459,314.841736 189.414307,314.942383 199.912064,314.927368 
z"/>
<path fill="#FEDECA" opacity="1.000000" stroke="none" 
	d="
M253.826202,243.572525 
	C254.217270,240.791473 254.964737,238.003113 254.907745,235.231277 
	C254.839035,231.889191 256.435608,231.443100 259.196838,231.474945 
	C269.506927,231.593857 279.818909,231.551651 290.516663,232.121948 
	C290.455139,235.425232 289.782898,238.168137 289.680115,240.932190 
	C289.643951,241.905563 291.003143,243.787094 291.723694,243.786346 
	C295.117432,243.782806 298.510651,243.269669 302.371521,242.961212 
	C313.723206,242.868774 314.191071,245.183945 313.987762,231.791641 
	C314.122833,231.680786 314.257904,231.569946 314.654449,231.476578 
	C318.473602,231.494064 322.031219,231.494064 326.150482,231.494064 
	C325.750671,235.674896 325.414795,239.187363 325.118652,243.103485 
	C324.440369,249.561798 323.219666,255.612198 323.168243,261.672546 
	C323.129272,266.264526 321.552795,267.312622 317.361816,267.078949 
	C311.589874,266.757111 305.786530,266.998322 299.281158,266.998322 
	C298.511047,273.376465 297.279846,279.514496 297.189209,285.669312 
	C297.122375,290.206238 295.624115,291.592163 291.405212,291.037964 
	C289.611938,290.802399 287.761444,291.002289 285.475677,291.011688 
	C285.673950,284.945312 286.303192,278.868011 287.003876,272.799011 
	C287.458466,268.861481 286.671692,266.139252 281.815857,266.999817 
	C276.746735,267.898193 275.293671,265.403259 275.993500,260.831909 
	C276.545288,257.227844 275.196686,255.731949 271.340057,255.920227 
	C265.531586,256.203796 259.698486,255.982315 253.424255,255.524689 
	C253.257172,251.240051 253.541687,247.406296 253.826202,243.572525 
z"/>
<path fill="#1F1F1F" opacity="1.000000" stroke="none" 
	d="
M197.556519,101.700157 
	C197.947647,102.171974 197.900650,102.500687 197.880432,102.831039 
	C197.454086,109.801582 196.443756,116.078476 186.755707,114.335152 
	C186.155853,114.227219 184.304794,117.491135 184.120239,119.297081 
	C183.440567,125.947838 183.599533,125.982193 177.153122,125.992798 
	C172.344528,126.000710 167.534927,126.053177 162.727692,125.972435 
	C160.382858,125.933067 159.042755,126.493301 158.963608,129.242447 
	C158.783218,135.508118 158.326538,141.765839 157.756348,148.521011 
	C157.530563,149.015244 157.087280,149.066483 156.616318,149.045135 
	C145.052719,148.953674 145.052826,148.953674 144.988037,159.966904 
	C144.986115,160.293961 144.977844,160.621002 144.752502,160.979782 
	C144.532455,161.011520 144.094284,161.087051 143.630676,161.064514 
	C141.009308,161.031631 138.843796,161.133362 136.695618,160.984741 
	C133.453537,160.760406 132.301315,162.458099 132.009018,165.394852 
	C131.249542,173.025269 131.204895,173.023010 123.311523,172.994522 
	C122.149940,172.990326 120.988464,172.953964 119.826942,172.932480 
	C120.762115,161.049438 121.697281,149.166382 122.662369,136.903152 
	C126.942711,136.903152 130.715485,136.903152 134.689926,136.903152 
	C135.085342,133.081131 135.440079,129.652374 135.870850,125.488686 
	C142.021210,125.488686 148.121399,125.205383 154.180191,125.584244 
	C158.512177,125.855125 160.313522,124.494980 160.077225,120.106674 
	C159.972397,118.160072 160.574783,116.175377 160.959000,113.488708 
	C166.738235,113.488708 172.516800,113.210747 178.254410,113.576004 
	C182.906464,113.872154 185.685364,112.999725 185.110748,107.550705 
	C184.925354,105.792686 185.524994,103.951881 185.844360,101.557816 
	C189.594955,101.557816 193.362915,101.557816 197.556519,101.700157 
z"/>
<path fill="#333030" opacity="1.000000" stroke="none" 
	d="
M119.629990,173.332504 
	C120.988464,172.953964 122.149940,172.990326 123.311523,172.994522 
	C131.204895,173.023010 131.249542,173.025269 132.009018,165.394852 
	C132.301315,162.458099 133.453537,160.760406 136.695618,160.984741 
	C138.843796,161.133362 141.009308,161.031631 143.604401,161.516418 
	C143.925232,171.896042 143.925247,171.895493 153.870453,172.049423 
	C154.368317,172.057129 154.865814,172.087845 155.252899,172.531235 
	C154.089066,180.972549 153.035843,188.990433 151.528870,197.013947 
	C147.529633,196.968933 143.984116,196.918335 140.438614,196.867722 
	C136.813507,196.687653 133.188416,196.507599 128.918854,196.295532 
	C129.200333,192.522797 129.474838,188.843323 129.790863,184.607544 
	C126.000275,184.607544 122.265572,184.607544 118.176369,184.607544 
	C118.640495,180.591064 119.036766,177.161804 119.629990,173.332504 
z"/>
<path fill="#D1D0D0" opacity="1.000000" stroke="none" 
	d="
M168.981247,266.992920 
	C161.332947,267.002625 153.684647,267.012360 145.580383,267.024963 
	C144.134964,267.018646 143.145538,267.003296 142.156067,267.001221 
	C134.442383,266.984985 134.329102,266.989532 134.076691,259.396240 
	C133.991455,256.832153 133.148041,255.784042 130.607849,255.902161 
	C128.336914,256.007751 126.057198,255.924362 122.953613,255.924362 
	C123.299911,251.517288 123.600487,247.692139 123.947899,243.438721 
	C127.692383,243.161072 131.390030,243.311676 135.512115,243.766327 
	C135.913574,247.580139 134.500900,252.709534 136.222153,254.186447 
	C138.335678,255.999908 143.067322,254.762085 146.989624,255.122452 
	C151.042587,255.271164 154.773117,255.140701 158.965942,255.111237 
	C162.928650,255.449188 166.429108,255.686157 169.927643,255.943695 
	C169.925735,255.964279 169.956573,255.991852 169.969421,256.427490 
	C169.648605,260.239746 169.314926,263.616302 168.981247,266.992920 
z"/>
<path fill="#FEDECA" opacity="1.000000" stroke="none" 
	d="
M271.414307,314.878784 
	C271.556854,308.309631 272.355835,301.786713 272.693359,295.239990 
	C272.895081,291.327271 274.882507,290.657013 278.145477,290.966125 
	C280.110779,291.152283 282.107880,291.002747 284.554871,291.009216 
	C284.321045,297.923553 283.776215,304.854919 282.781372,311.721069 
	C282.606049,312.931091 280.682373,314.509277 279.331421,314.790649 
	C276.941498,315.288361 274.371307,314.920532 271.414307,314.878784 
z"/>
<path fill="#FBCCAF" opacity="1.000000" stroke="none" 
	d="
M207.428482,361.917999 
	C207.303421,358.215302 207.648956,354.556854 207.986145,350.456909 
	C215.668793,350.011322 223.359802,350.007141 231.517822,349.998627 
	C231.700470,351.281769 231.314896,352.556305 231.148224,353.858826 
	C230.106857,361.996918 230.123093,362.003204 221.771011,361.997711 
	C217.147034,361.994659 212.523071,361.974609 207.428482,361.917999 
z"/>
<path fill="#E7B596" opacity="1.000000" stroke="none" 
	d="
M149.988754,219.988007 
	C146.312607,219.997070 142.636444,220.006119 138.514679,219.943115 
	C138.477341,216.145203 138.885605,212.419342 139.949249,208.359085 
	C144.075897,208.029037 147.547211,208.033401 151.003693,208.017105 
	C150.988861,207.996460 150.954926,207.958618 150.973099,208.407745 
	C150.657104,212.567261 150.322922,216.277634 149.988754,219.988007 
z"/>
<path fill="#FBCCAF" opacity="1.000000" stroke="none" 
	d="
M232.457932,349.990906 
	C232.014023,337.979431 232.014023,337.979431 244.574127,338.013733 
	C244.729095,339.281036 244.246704,340.526947 244.136505,341.804901 
	C243.429779,349.999420 243.456635,350.001801 235.383820,349.998901 
	C234.562866,349.998596 233.741898,349.996613 232.457932,349.990906 
z"/>
<path fill="#FEDECA" opacity="1.000000" stroke="none" 
	d="
M258.321564,326.371826 
	C257.838074,312.826813 258.261292,315.142029 269.598511,315.022491 
	C270.048279,315.702942 270.027283,316.368622 270.018677,317.034424 
	C269.878967,327.815552 269.879333,327.815552 258.321564,326.371826 
z"/>
<path fill="#FBCCAF" opacity="1.000000" stroke="none" 
	d="
M245.481415,338.027893 
	C245.018250,337.879211 245.014191,337.714020 245.013306,337.548859 
	C244.951508,325.925354 244.951508,325.925354 256.808502,326.058624 
	C257.257782,326.409943 257.208557,326.733368 257.192352,327.058441 
	C256.649658,337.969452 256.650116,337.969482 245.481415,338.027893 
z"/>
<path fill="#484747" opacity="1.000000" stroke="none" 
	d="
M151.018509,208.037750 
	C147.547211,208.033401 144.075897,208.029037 140.119202,208.001709 
	C139.851349,204.584106 140.068909,201.189484 140.362549,197.331299 
	C143.984116,196.918335 147.529633,196.968933 151.559723,197.455307 
	C151.702377,201.273300 151.360443,204.655518 151.018509,208.037750 
z"/>
<path fill="#E7B596" opacity="1.000000" stroke="none" 
	d="
M151.003693,208.017105 
	C151.360443,204.655518 151.702377,201.273300 152.013458,197.449707 
	C153.035843,188.990433 154.089066,180.972549 155.672287,172.623901 
	C159.382614,172.218140 162.562958,172.143112 165.743301,172.068085 
	C165.459473,178.310791 165.185486,184.553970 164.885132,190.795883 
	C164.806747,192.424805 164.646133,194.049759 164.494400,196.058975 
	C168.337570,196.058975 171.891144,196.058975 175.692108,196.058975 
	C175.870926,195.208832 176.068771,194.427597 176.196777,193.635101 
	C177.570145,185.133316 177.579483,185.243912 186.128525,184.292648 
	C187.323288,184.159714 189.097702,182.437347 189.297012,181.234268 
	C190.868469,171.748367 190.770950,171.729492 200.587280,172.540314 
	C200.897568,172.565933 201.192673,172.775345 201.990997,173.102234 
	C201.687622,176.499283 201.370071,180.054977 200.981934,184.401016 
	C204.290527,184.401016 207.395447,184.623428 210.433182,184.269455 
	C211.380463,184.159073 212.634735,182.608337 212.898666,181.512329 
	C213.554337,178.789566 213.720367,175.948914 214.598755,172.760101 
	C218.722092,172.293152 222.329712,172.221695 225.937332,172.150253 
	C233.504913,172.150253 241.072495,172.150253 248.810074,172.150253 
	C248.810074,176.597351 248.810074,180.304260 248.604065,184.476105 
	C242.405182,184.954254 236.393448,185.266434 230.425262,184.889221 
	C225.351120,184.568527 223.270203,186.361923 223.987534,191.405396 
	C224.620987,195.859207 222.491486,197.133606 218.225601,197.057053 
	C206.077026,196.839020 193.921982,196.969681 181.769547,196.992767 
	C179.999863,196.996124 178.230469,197.161743 176.237762,197.263687 
	C175.864212,201.178833 175.536835,204.610123 175.096542,208.097900 
	C174.983643,208.154419 174.731369,208.165863 174.282104,208.123230 
	C166.206863,208.039948 158.580887,207.999283 150.954926,207.958618 
	C150.954926,207.958618 150.988861,207.996460 151.003693,208.017105 
z"/>
<path fill="#FEC9A9" opacity="1.000000" stroke="none" 
	d="
M175.209442,208.041397 
	C175.536835,204.610123 175.864212,201.178833 176.237762,197.263687 
	C178.230469,197.161743 179.999863,196.996124 181.769547,196.992767 
	C193.921982,196.969681 206.077026,196.839020 218.225601,197.057053 
	C222.491486,197.133606 224.620987,195.859207 223.987534,191.405396 
	C223.270203,186.361923 225.351120,184.568527 230.425262,184.889221 
	C236.393448,185.266434 242.405182,184.954254 248.888702,184.849701 
	C252.783127,184.758362 256.186890,184.758362 259.923615,184.758362 
	C259.440643,188.853500 259.003479,192.560165 257.901184,196.627655 
	C245.990341,197.010681 245.990341,197.010681 245.544586,207.903061 
	C237.484390,208.021576 229.888702,208.069016 221.806992,208.083435 
	C205.950470,208.047409 190.579971,208.044403 175.209442,208.041397 
z"/>
<path fill="#564A4A" opacity="1.000000" stroke="none" 
	d="
M166.225281,172.078766 
	C162.562958,172.143112 159.382614,172.218140 155.782867,172.200500 
	C154.865814,172.087845 154.368317,172.057129 153.870453,172.049423 
	C143.925247,171.895493 143.925232,171.896042 144.068024,161.538971 
	C144.094284,161.087051 144.532455,161.011520 145.215546,161.000870 
	C156.813309,161.047867 156.813126,161.047867 157.046738,150.053299 
	C157.053726,149.724228 157.073471,149.395416 157.087280,149.066483 
	C157.087280,149.066483 157.530563,149.015244 157.750320,148.977722 
	C161.276123,149.055389 165.459641,148.027588 167.595352,149.667191 
	C169.150314,150.860962 167.990128,155.576172 168.071609,158.720627 
	C168.084167,159.204651 168.264526,159.684341 168.547104,161.009018 
	C170.644638,161.009018 172.901489,161.153793 175.132202,160.974075 
	C178.249741,160.722931 179.414307,162.123749 179.015167,165.055756 
	C178.633194,167.861816 180.410751,171.913101 175.162155,172.018417 
	C172.344513,172.074982 169.525604,172.067856 166.225281,172.078766 
z"/>
<path fill="#564A4A" opacity="1.000000" stroke="none" 
	d="
M225.954926,171.694794 
	C222.329712,172.221695 218.722092,172.293152 214.671051,172.370300 
	C214.824585,165.833847 215.567520,159.300171 215.948349,152.745453 
	C216.105881,150.033646 216.915741,148.723923 219.729477,148.994354 
	C220.712418,149.088791 221.712250,149.002045 222.704330,149.007843 
	C228.033676,149.039062 228.597122,149.851730 227.837845,155.093109 
	C227.061417,160.452789 226.581955,165.855484 225.954926,171.694794 
z"/>
<path fill="#FEDECA" opacity="1.000000" stroke="none" 
	d="
M280.593384,219.304306 
	C277.063721,219.829742 273.484375,219.905518 269.452606,219.460449 
	C269.005188,215.352234 269.010193,211.764908 269.015198,208.177567 
	C272.965851,208.177567 276.916534,208.177567 281.325348,208.177567 
	C281.047211,211.976624 280.795471,215.415634 280.593384,219.304306 
z"/>
<path fill="#FFD4BA" opacity="1.000000" stroke="none" 
	d="
M268.560822,208.102112 
	C269.010193,211.764908 269.005188,215.352234 269.002319,219.387100 
	C265.325775,219.887177 261.647095,219.939743 257.439331,219.537537 
	C257.293671,215.373367 257.677063,211.664001 258.038055,207.977524 
	C258.015625,208.000427 257.976501,208.051254 257.976501,208.051254 
	C261.353149,208.043060 264.729797,208.034866 268.560822,208.102112 
z"/>
<path fill="#564A4A" opacity="1.000000" stroke="none" 
	d="
M184.114624,160.991760 
	C179.229858,161.431030 179.668365,158.192352 180.153595,155.719009 
	C180.651932,153.179016 179.453201,149.202576 184.096695,149.033249 
	C186.730179,148.937225 189.370026,149.015915 191.978394,149.015915 
	C192.533096,160.972183 192.533096,160.972183 184.114624,160.991760 
z"/>
<path fill="#FFD4BA" opacity="1.000000" stroke="none" 
	d="
M246.009094,207.831985 
	C245.990341,197.010681 245.990341,197.010681 257.709167,196.983810 
	C258.057678,200.365204 257.933105,203.751251 257.892517,207.594284 
	C257.976501,208.051254 258.015625,208.000427 257.573700,207.994934 
	C253.424210,207.936951 249.716660,207.884476 246.009094,207.831985 
z"/>
<path fill="#FEDECA" opacity="1.000000" stroke="none" 
	d="
M204.998444,267.001221 
	C204.665878,268.738892 204.069443,270.473083 204.046631,272.214813 
	C203.950195,279.574219 204.574768,278.969391 197.028397,279.003387 
	C195.558060,279.010010 194.087906,279.058777 191.709305,279.082520 
	C187.214462,279.018951 183.627975,278.960938 180.027817,278.462097 
	C180.621857,270.702393 181.229584,263.383484 181.880188,255.634872 
	C182.324020,251.508530 182.725006,247.811905 183.571503,244.051514 
	C187.675308,243.980530 191.333603,243.973328 194.991898,243.966125 
	C194.991898,243.966110 195.067017,243.837280 195.030487,244.268723 
	C194.610825,248.185211 194.227707,251.670273 193.794647,255.609573 
	C198.052414,255.609573 201.488815,255.609573 204.954163,256.091370 
	C204.988235,260.049194 204.993347,263.525208 204.998444,267.001221 
z"/>
<path fill="#E19380" opacity="1.000000" stroke="none" 
	d="
M200.355682,314.916199 
	C189.414307,314.942383 178.914459,314.841736 168.419861,315.031311 
	C164.412338,315.103699 163.412003,313.697998 164.451584,309.945831 
	C165.105911,307.584229 165.121658,305.045715 166.162933,302.292725 
	C174.297806,301.988342 181.693619,301.977814 189.089417,301.967285 
	C192.800903,302.081024 196.512375,302.194794 201.053223,302.156891 
	C205.281464,302.000214 208.680359,301.995148 212.079254,301.990112 
	C212.089127,302.486450 212.105759,302.982727 212.107910,303.479095 
	C212.156387,314.712341 212.156097,314.712341 200.355682,314.916199 
z"/>
<path fill="#D1D0D0" opacity="1.000000" stroke="none" 
	d="
M205.467255,267.001526 
	C204.993347,263.525208 204.988235,260.049194 204.993652,255.916962 
	C205.143951,255.039322 205.344742,254.926178 206.087799,254.955109 
	C210.316116,255.002670 214.063156,255.016479 218.287308,255.049316 
	C222.186630,255.050125 225.608841,255.031891 229.302475,255.298615 
	C239.866806,257.016418 241.645111,255.586227 242.047974,245.552887 
	C242.067596,245.064041 242.095474,244.575516 242.415817,243.964355 
	C242.870377,243.698166 243.028641,243.554504 243.186905,243.410858 
	C246.475555,243.450455 249.764206,243.490036 253.439529,243.551071 
	C253.541687,247.406296 253.257172,251.240051 252.951447,255.510910 
	C252.764420,255.950378 252.598633,255.954147 252.432831,255.954926 
	C241.602417,256.005432 241.602417,256.005402 239.390060,267.001862 
	C228.356735,267.001862 217.146408,267.001862 205.467255,267.001526 
z"/>
<path fill="#DE9D73" opacity="1.000000" stroke="none" 
	d="
M189.057983,301.539978 
	C181.693619,301.977814 174.297806,301.988342 166.428375,301.992920 
	C166.289551,298.609528 166.624329,295.232117 167.427673,291.430481 
	C171.274109,290.992340 174.651993,290.978394 178.488937,290.975006 
	C182.650345,291.002655 186.352661,291.019775 190.054993,291.036896 
	C189.712173,294.395477 189.369354,297.754059 189.057983,301.539978 
z"/>
<path fill="#C68055" opacity="1.000000" stroke="none" 
	d="
M190.281067,290.711914 
	C186.352661,291.019775 182.650345,291.002655 178.536438,290.574493 
	C178.763733,286.409943 179.402618,282.656433 180.041504,278.902924 
	C183.627975,278.960938 187.214462,279.018951 191.227570,279.136993 
	C191.271851,282.927002 190.889481,286.656982 190.281067,290.711914 
z"/>
<path fill="#E7B596" opacity="1.000000" stroke="none" 
	d="
M212.343765,301.715271 
	C208.680359,301.995148 205.281464,302.000214 201.419754,301.982483 
	C200.963104,301.794250 200.971817,301.628845 200.975037,301.463348 
	C201.186066,290.603607 202.084427,289.863647 214.064377,291.591034 
	C213.580887,294.861481 213.094574,298.150970 212.343765,301.715271 
z"/>
<path fill="#FFD4BA" opacity="1.000000" stroke="none" 
	d="
M175.096558,208.097900 
	C190.579971,208.044403 205.950470,208.047409 221.775909,208.513184 
	C221.787491,212.631577 221.344162,216.287216 220.900818,219.942841 
	C205.617203,219.957993 190.333572,219.973145 174.535645,219.523804 
	C174.258026,215.428146 174.494705,211.797012 174.731369,208.165863 
	C174.731369,208.165863 174.983643,208.154419 175.096558,208.097900 
z"/>
<path fill="#312D2D" opacity="1.000000" stroke="none" 
	d="
M221.375000,219.971191 
	C221.344162,216.287216 221.787491,212.631577 222.261902,208.546204 
	C229.888702,208.069016 237.484390,208.021576 245.544586,207.903061 
	C249.716660,207.884476 253.424210,207.936951 257.596130,207.972015 
	C257.677063,211.664001 257.293671,215.373367 256.981873,219.525604 
	C245.318741,219.978806 233.583954,219.989182 221.375000,219.971191 
z"/>
<path fill="#F8F7F7" opacity="1.000000" stroke="none" 
	d="
M158.503662,255.010254 
	C154.773117,255.140701 151.042587,255.271164 147.049316,254.676849 
	C147.529495,246.571136 148.272385,239.190186 149.015274,231.809219 
	C152.799500,231.728928 156.583725,231.648651 160.575043,232.194397 
	C160.505493,236.554962 160.228867,240.289490 159.761520,244.390076 
	C159.215103,248.174179 158.859390,251.592209 158.503662,255.010254 
z"/>
<path fill="#312D2D" opacity="1.000000" stroke="none" 
	d="
M174.282104,208.123230 
	C174.494705,211.797012 174.258026,215.428146 174.076218,219.491669 
	C166.395813,219.966766 158.660522,220.009506 150.457001,220.020126 
	C150.322922,216.277634 150.657104,212.567261 150.973099,208.407745 
	C158.580887,207.999283 166.206863,208.039948 174.282104,208.123230 
z"/>
<path fill="#E7B596" opacity="1.000000" stroke="none" 
	d="
M148.637634,231.677475 
	C148.272385,239.190186 147.529495,246.571136 146.726898,254.397705 
	C143.067322,254.762085 138.335678,255.999908 136.222153,254.186447 
	C134.500900,252.709534 135.913574,247.580139 135.961731,243.655655 
	C136.370071,239.453735 136.753235,235.666534 137.170166,231.545731 
	C140.987991,231.545731 144.623993,231.545731 148.637634,231.677475 
z"/>
<path fill="#FFD4BA" opacity="1.000000" stroke="none" 
	d="
M217.810211,255.030273 
	C214.063156,255.016479 210.316116,255.002670 206.116531,254.525543 
	C206.008759,250.658661 206.353546,247.255096 206.698334,243.851532 
	C207.203491,239.926620 207.708649,236.001709 208.279144,231.569061 
	C211.898148,231.569061 215.486786,231.569061 219.526337,232.155533 
	C219.254898,240.171432 218.532547,247.600861 217.810211,255.030273 
z"/>
<path fill="#FFFFFE" opacity="1.000000" stroke="none" 
	d="
M218.287323,255.049332 
	C218.532547,247.600861 219.254898,240.171432 219.973206,232.294189 
	C223.360153,231.738693 226.751144,231.631012 230.746643,232.020752 
	C231.176727,236.284256 231.002289,240.050339 230.642151,244.232056 
	C229.981323,248.103012 229.506180,251.558334 229.031052,255.013657 
	C225.608841,255.031891 222.186630,255.050125 218.287323,255.049332 
z"/>
<path fill="#484747" opacity="1.000000" stroke="none" 
	d="
M230.827850,243.816422 
	C231.002289,240.050339 231.176727,236.284256 231.208588,232.059311 
	C234.820465,231.600449 238.574921,231.600449 242.958008,231.600449 
	C242.958008,235.390518 242.958008,238.987152 243.072449,242.997314 
	C243.028641,243.554504 242.870377,243.698166 241.957840,243.926987 
	C237.744995,243.946899 234.286407,243.881653 230.827850,243.816422 
z"/>
<path fill="#C4C2C0" opacity="1.000000" stroke="none" 
	d="
M183.125977,244.115295 
	C182.725006,247.811905 182.324020,251.508530 181.437286,255.582504 
	C177.286530,255.970535 173.621552,255.981186 169.956573,255.991852 
	C169.956573,255.991852 169.925735,255.964279 169.926880,255.514252 
	C170.295593,251.384705 170.663162,247.705170 171.139374,243.867432 
	C171.248001,243.709198 171.084808,243.361771 171.084808,243.361755 
	C174.763824,243.370453 178.442825,243.379150 182.589676,243.515839 
	C183.057510,243.643845 183.125977,244.115295 183.125977,244.115295 
z"/>
<path fill="#ECBA9A" opacity="1.000000" stroke="none" 
	d="
M183.571503,244.051514 
	C183.125977,244.115295 183.057510,243.643845 183.039963,243.406525 
	C183.158615,242.350906 183.321213,241.536041 183.426987,240.713837 
	C184.757843,230.368652 184.755737,230.368378 196.198181,231.927734 
	C195.832214,235.649857 195.463837,239.396622 195.043671,243.554764 
	C191.333603,243.973328 187.675308,243.980530 183.571503,244.051514 
z"/>
<path fill="#574C4C" opacity="1.000000" stroke="none" 
	d="
M206.260971,243.815216 
	C206.353546,247.255096 206.008759,250.658661 205.635254,254.491791 
	C205.344742,254.926178 205.143951,255.039322 204.964691,255.435165 
	C201.488815,255.609573 198.052414,255.609573 193.794647,255.609573 
	C194.227707,251.670273 194.610825,248.185211 195.101379,244.291809 
	C198.747086,243.848602 202.285339,243.813766 206.260971,243.815216 
z"/>
<path fill="#E7B596" opacity="1.000000" stroke="none" 
	d="
M301.904053,242.938354 
	C298.510651,243.269669 295.117432,243.782806 291.723694,243.786346 
	C291.003143,243.787094 289.643951,241.905563 289.680115,240.932190 
	C289.782898,238.168137 290.455139,235.425232 290.968140,232.267731 
	C294.708069,231.757462 298.383057,231.653458 302.494476,232.102417 
	C302.588623,236.083023 302.246338,239.510696 301.904053,242.938354 
z"/>
<path fill="#3C3D3E" opacity="1.000000" stroke="none" 
	d="
M171.102539,242.921143 
	C171.084808,243.361771 171.248001,243.709198 170.679291,243.830154 
	C166.724472,243.975403 163.338348,243.999695 159.952225,244.024002 
	C160.228867,240.289490 160.505493,236.554962 160.894852,232.408722 
	C161.336472,231.971863 161.665070,231.930359 161.994339,231.923950 
	C173.102997,231.707565 173.103012,231.708038 171.102539,242.921143 
z"/>
<path fill="#FFD4BA" opacity="1.000000" stroke="none" 
	d="
M302.371521,242.961212 
	C302.246338,239.510696 302.588623,236.083023 302.936859,232.228424 
	C306.326874,231.721176 309.710938,231.640884 313.541382,231.676117 
	C314.191071,245.183945 313.723206,242.868774 302.371521,242.961212 
z"/>
<path fill="#D38D61" opacity="1.000000" stroke="none" 
	d="
M169.969421,256.427490 
	C173.621552,255.981186 177.286530,255.970535 181.394409,256.012238 
	C181.229584,263.383484 180.621857,270.702393 180.027817,278.462097 
	C179.402618,282.656433 178.763733,286.409943 178.077362,290.563965 
	C174.651993,290.978394 171.274109,290.992340 167.435120,291.011902 
	C167.650299,283.301727 168.326584,275.585968 168.992065,267.431519 
	C169.314926,263.616302 169.648605,260.239746 169.969421,256.427490 
z"/>
<path fill="#312D2D" opacity="1.000000" stroke="none" 
	d="
M156.616318,149.045135 
	C157.073471,149.395416 157.053726,149.724228 157.046738,150.053299 
	C156.813126,161.047867 156.813309,161.047867 145.435577,160.969131 
	C144.977844,160.621002 144.986115,160.293961 144.988037,159.966904 
	C145.052826,148.953674 145.052719,148.953674 156.616318,149.045135 
z"/>
<path fill="#747474" opacity="1.000000" stroke="none" 
	d="
M159.761520,244.390076 
	C163.338348,243.999695 166.724472,243.975403 170.570663,243.988373 
	C170.663162,247.705170 170.295593,251.384705 169.928772,255.493668 
	C166.429108,255.686157 162.928650,255.449188 158.965942,255.111237 
	C158.859390,251.592209 159.215103,248.174179 159.761520,244.390076 
z"/>
<path fill="#747474" opacity="1.000000" stroke="none" 
	d="
M230.642151,244.232056 
	C234.286407,243.881653 237.744995,243.946899 241.661545,244.049500 
	C242.095474,244.575516 242.067596,245.064041 242.047974,245.552887 
	C241.645111,255.586227 239.866806,257.016418 229.302475,255.298615 
	C229.506180,251.558334 229.981323,248.103012 230.642151,244.232056 
z"/>
</svg>